<svg viewBox="0 0 93 217" fill="none" xmlns="http://www.w3.org/2000/svg">
<path d="M15.8117 77.8054L14.6216 79.0024C11.3912 82.5934 8.67093 86.5264 6.80073 91.3144C4.76051 96.1024 3.7404 101.061 3.40036 105.849V107.901C3.40036 108.072 3.40036 108.072 3.40036 108.243L0 217L76.1682 140.05C76.5082 139.708 77.0183 139.195 77.3583 138.853L78.3784 137.827C81.6088 134.236 84.3291 130.132 86.1993 125.515C88.2395 120.727 89.2596 115.768 89.5996 110.979V108.757L93 0L16.8318 76.9503C16.4918 77.1214 16.1518 77.4634 15.8117 77.8054ZM32.1335 102.087C35.5339 94.0504 44.7148 90.2884 52.7057 93.7084C60.6965 97.1284 64.437 106.362 61.0366 114.4C57.6362 122.437 48.4552 126.199 40.4644 122.779C32.4735 119.359 28.7331 110.125 32.1335 102.087Z" />
</svg>
